/* XPM */
static char *grass_and_dirt[] = {
/* columns rows colors chars-per-pixel */
"64 64 155 2 ",
"   c #4E3E0B",
".  c #563F03",
"X  c #583F03",
"o  c #503F09",
"O  c #554205",
"+  c #5A4605",
"@  c #564906",
"#  c #5D4905",
"$  c #524008",
"%  c #544D08",
"&  c #4F5E0E",
"*  c #565107",
"=  c #595006",
"-  c #53530B",
";  c #5A5209",
":  c #525B0C",
">  c #624C06",
",  c #675006",
"<  c #695206",
"1  c #4F610F",
"2  c #53630E",
"3  c #58600A",
"4  c #556B0D",
"5  c #55750F",
"6  c #5D780F",
"7  c #4E6311",
"8  c #4E6D13",
"9  c #516A11",
"0  c #4C7316",
"q  c #4C7817",
"w  c #4A7E19",
"e  c #527510",
"r  c #5C7610",
"t  c #4A841B",
"y  c #528214",
"u  c #5B8712",
"i  c #548C14",
"p  c #508518",
"a  c #4B921C",
"s  c #4B9F1F",
"d  c #539015",
"f  c #559B17",
"g  c #5E9817",
"h  c #519619",
"j  c #519C19",
"k  c #639314",
"l  c #609C16",
"z  c #4FA11C",
"x  c #4FAC1F",
"c  c #54A41A",
"v  c #53AB1B",
"b  c #5BAC1B",
"n  c #4FB41F",
"m  c #53B61D",
"M  c #5DB61C",
"N  c #54B91D",
"B  c #5CBB1D",
"V  c #64AD1A",
"C  c #69AB19",
"Z  c #64B71C",
"A  c #6BB71B",
"S  c #65BA1C",
"D  c #6CBA1B",
"F  c #70BB1B",
"G  c #72BA1B",
"H  c #72BB1B",
"J  c #70B91B",
"K  c #70BC1B",
"L  c #71BD1B",
"P  c #72BC1B",
"I  c #71BE1B",
"U  c #70BB1C",
"Y  c #71BE1C",
"T  c #469321",
"R  c #489520",
"E  c #499520",
"W  c #489520",
"Q  c #469F24",
"!  c #499F21",
"~  c #45A525",
"^  c #4AA120",
"/  c #48A323",
"(  c #4CA120",
")  c #4AA121",
"_  c #4AAB22",
"`  c #4BAB22",
"'  c #4CAA21",
"]  c #4DB121",
"[  c #4EB020",
"{  c #4EB120",
"}  c #4EB320",
"|  c #4FB320",
" . c #4CB122",
".. c #4FB420",
"X. c #4DB322",
"o. c #51B920",
"O. c #59C01D",
"+. c #5BC01D",
"@. c #5AC01D",
"#. c #5DC01D",
"$. c #5FC71E",
"%. c #62C01D",
"&. c #62C11D",
"*. c #67C11D",
"=. c #61C41D",
"-. c #63C41D",
";. c #60C61E",
":. c #60C71E",
">. c #62C71E",
",. c #64C71D",
"<. c #6AC01C",
"1. c #6DC01C",
"2. c #6CC11C",
"3. c #6FC01C",
"4. c #6FC11C",
"5. c #6EC11C",
"6. c #6DC31C",
"7. c #6EC21C",
"8. c #6FC21C",
"9. c #68C51D",
"0. c #6AC51D",
"q. c #6AC71D",
"w. c #6BC71D",
"e. c #6DC41C",
"r. c #6DC51D",
"t. c #6EC41C",
"y. c #6DC61D",
"u. c #6CC71D",
"i. c #6DC71D",
"p. c #6CC61D",
"a. c #67C81D",
"s. c #67CA1D",
"d. c #66CA1E",
"f. c #65CC1E",
"g. c #65CD1E",
"h. c #66CD1E",
"j. c #67CD1E",
"k. c #68C81D",
"l. c #6BC81D",
"z. c #6BC91D",
"x. c #6ACA1D",
"c. c #6ACB1D",
"v. c #6BCB1D",
"b. c #6CC81D",
"n. c #68CD1E",
"m. c #69CD1E",
"M. c #6ACD1E",
"N. c #69CE1E",
"B. c #68CF1E",
"V. c #69CF1E",
"C. c #6ACF1E",
"Z. c #67D11E",
"A. c #68D01E",
"S. c #68D11E",
"D. c #69D11E",
/* pixels */
"A.A.A.A.A.A.A.Z.A.Z.Z.Z.Z.Z.j.A.D.Z.D.Z.Z.Z.Z.D.Z.Z.Z.Z.Z.Z.Z.Z.D.Z.Z.Z.a.Z.D.Z.D.Z.D.Z.Z.Z.Z.Z.i.Z.Z.Z.Z.D.Z.Z.Z.Z.Z.Z.Z.Z.Z.Z.",
"A.A.A.A.A.A.A.A.A.A.Z.Z.j.Z.A.A.Z.Z.Z.i.Z.Z.Z.D.Z.D.Z.D.Z.Z.D.Z.a.D.Z.Z.D.Z.Z.D.Z.a.Z.D.Z.i.Z.Z.Z.Z.a.Z.D.Z.i.Z.Z.Z.Z.Z.D.Z.i.D.",
"A.A.A.A.Z.A.Z.Z.b.Z.Z.Z.A.A.A.A.a.D.Z.Z.Z.i.Z.a.Z.Z.i.a.Z.a.D.Z.D.i.Z.Z.Z.D.D.a.D.D.Z.Z.Z.Z.a.Z.i.Z.Z.Z.a.Z.Z.Z.Z.a.D.Z.D.Z.Z.i.",
"A.A.A.A.Z.Z.Z.b.b.b.b.b.b.A.A.A.D.Z.Z.Z.Z.D.Z.D.i.i.i.i.i.i.i.i.D.D.Z.Z.D.D.D.D.D.D.D.Z.i.i.i.Z.Z.D.Z.D.Z.Z.Z.Z.D.D.D.i.i.a.i.i.",
"A.A.Z.Z.Z.Z.A.b.t.t.t.t.b.A.A.A.Z.Z.Z.Z.D.D.D.i.i.i.3.3.5.i.5.i.Z.i.Z.Z.Z.D.D.D.Z.Z.D.a.i.3.i.i.i.Z.Z.Z.Z.Z.Z.Z.D.D.Z.a.i.i.5.5.",
"A.A.Z.j.Z.j.A.b.t.t.D t.b.A.A.A.Z.Z.Z.Z.D.D.D.i.5.5.J 3.J 3.5.5.i.Z.Z.Z.Z.D.Z.Z.Z.Z.i.i.5.3.3.3.i.Z.a.Z.Z.Z.Z.Z.Z.Z.D.i.5.5.3.A ",
"j.j.j.j.j.b.b.t.D D F t.t.j.Z.j.Z.a.Z.Z.a.a.a.-.5.A A A J J J 3.i.i.Z.a.a.Z.a.Z.a.Z.a.5.5.3.J 3.5.i.Z.Z.a.Z.a.Z.a.a.-.5.5.A A J ",
"j.$.$.=.=.b.b.t.3.F D D =.=.$.$.$.a.O.$.$.$.-.O.S S S A J J J 3.5.i.a.a.a.$.a.O.$.$.-.-.5.J J 3.5.i.i.a.a.$.$.$.$.$.-.-.-.S S A ",
"$.B =.S =.t.3.F F F D D S B $.B O.O.O.O.O.O.B B B M M Z A J J J 5.3.5.5.-.B B O.O.O.O.S A A J J 3.3.0.0.$.O.O.O.O.O.O.B B Z M M ",
"m N B S D D F F F F D S B B N N m m N N N N N N N N M Z A J J J J A A -.S N N N N N B S A A J 3.P P A Z B m O.m N N N N N N M N ",
"n m b N Z D D F F F D S Z N m m m m m m N N N m N N N M S A A J A A A S B N m m m N N B Z A A A P A A Z B m m m N N N m m m N N ",
"m m N N N Z A D F F F D N N m n m m m m N N N m N N N B B S S A A S Z B N m m m m N N B B S A A A Z Z M B m m O.N N m m m m v N ",
"n m m m N Z Z Z D F D D Z N m m m m m m m m N N m m m m N Z M M S M N M N N m m m m m N N B M M M M M M v m m m m m m m m m m m ",
"m m m m m m N Z D A D Z Z m m m m m m m m m m N N N N N m m M m M N m m N v m m m m m m N N N N M m M m m m m m m m m m m m m m ",
"m m N m m m m Z V C C V b m m m m m m m m m n x v v c v x m n n N m m m N m m x v c v v v m m n m m m m n n m v v v c v m m m m ",
"m m N N N o.b b f k k l f x x n n m n n n x x z d d d d s x n n m m m m v x x j j d d h f x x n m m m v n x x z f h h f c m m m ",
"N m m N N N m f u 6 5 u d ! '  .| | m | ' ' / a y 0 5 y a z x  .n n m n  .' s a y 5 5 w a z ~ n n m n n  .~ x a y 0 e i f N N N ",
"m m m m N n v i 5 3 * 5 w E / ' | | | | ' / E t 4 : : 8 t a / ~ n m n ' ' / a t 8 2 * 8 w s ~ ~ n m n n  .~ a t 8 & 3 5 p v N N ",
"n n n m v v f 5 4 = % & 0 t E ! x x | ' / E t 0 : % % : 0 t T / x x x x / T t 0 & % % & 0 t a / x x n x a a t 0 & * * 4 p z v N ",
"n x x z f i y 5 * % O % 1 0 t E ! z / c a t 0 1 - O % - 1 0 t a z / x s a t 0 1 * O % - 1 0 y a ! x z s a t 0 1 % O * 4 p z x n ",
"~ ~ z a p e 4 * # # # % - : 8 w a ! ! a w 8 & - # + + % - & 8 w a / s a w 8 & * % O % % * & 8 w a ! ~ a w 8 1 - % # ; 4 p z ~  .",
"~ Q Q t e : * % + + # % % % : 8 t E E t 9 : % # + + # + # % : 8 t T T t 0 - % % # # + + % % - 0 t a T t 8 & % O + + ; 9 y a ~ ~ ",
"a Q t q 1 * O + + > + + + O % 2 w t t w 2 % O + > + > + O O % & 0 t a 0 2 % + X + + > + + O % & q t t 0 1 % $ . X + * 2 q t T T ",
"w w 0 1 - O X O X + + + X + % : 9 0 0 9 : O + + X > + + + + ; - 9 0 0 8 : # X X > > + + O O O & 7 0 0 8 - % $ . + + % & 8 0 w w ",
"7 7 & - % $ O O O O O + + + + = : 2 2 3 % # # X # > # # + > + ; : 2 1 : ; # + + + > + + + X O % - & & - % O X X X + % % : : 1 1 ",
"% % % % O O O O O O O + + + # # ; ; ; > # # # # # # # # X > + # ; ; ; # > # + > # # # + + + O O % % % % O O O O X O O O % % % * ",
"O $ $ $ $ O O O O O + + + > > > > # > # # # # # # > # # > + + + > > + > + > > > # # # + O O O O O O O O O O O O O + O + O O O O ",
"O . X $ X O O O O O + + > > > > > > > > # # # # # X > # + > > > > > > > > > > > # # + O O O X O X O O O O O + + + + + + + + O O ",
"X . O O O O O O O + + # > , < < > > > > + + # # # # > # # # # > > > > < < < < > # + + O O O O O O + + O X + + + + > > + + + + + ",
"O $ O O X O O O O + # > , < < < , > > > + > # X # # # # # # # > > > > < < < < > # + O O X O O + O O + + + + + + > > > > > + + > ",
"O O O O O O O O O + + > > < < < , , > > > > X # # # # # # > # # > > > < < < < < > + + O O O O O + + + + + + + > > > > > > > > + ",
"O O O + O O O O O + + # > , < , , > > > > + > # # # X # # # # > > > > < < < < < > > # + + O O + + + + + > > > > > > > + > + > > ",
"# + + + O O O O O O + + # > > > > > ; > > > > > # # # # # # # # > + > > > < < < < < > > # + + O + + # # > < , > > > # # # # # # ",
"# # + + + O O O O O O + + + # # # # # > > > > > # # + # # # # # > + + > > < > < < < < , # + + O O + # > < < < < > ; # # # # # # ",
"# # # + + O O O O O O O + + + # # # > > > > > > # # # # # # # # + + + > > > > < < < < > > # + + + + + > , < < < > # X # # # # # ",
"# > # + + + + O O O O O O O O + # # > > > < < < > > # # # # # # + + + + + + > > > , > > > > # # + + + # > , , > > # # # # X # # ",
"# + > + + + + + O O O O O O + +     # , < < < < > > > > # # # # + + + + + + + + + # > > > > > + # + + # # > # # # + + + # # # # ",
"# > > # # # # + + O O O O O O O # # # # < < < < < > > > # # # # + ; O # + + + + + O + # > > > # # + + + + # # # + ; + + o # + X ",
"+ > + > > > # + + O O O O O O + #   # > > < < < < > > > # # # # + + + O O O O X O O O + # > > > # + + + + + + + # # + + + + + + ",
"+ + + > > > > > + + O O O O O O + # # # > < < > > > > > # # + + # + O O O X O O O O O + # # > > # + + + + + + # # # # # + + + + ",
"+ # # > > < < > # + + O O + O + + # # # # > # > + + # # # # # + # O # O O O O O X O O O + + # # # + o # #   # # # # # # # # $ # ",
"+ + + > > < < > > + + + + + + + #   + # # # # # # # + + + + + + # X O O O O O X $ O O O O + + + + # # # # # # # # # > > # # $ # ",
"+ + # > < < < < > + + + + + + + # # + # + + + + O # # # + + + + # O # O X O O O O O O O + + + + + +   #   # # # > > > # # # # # ",
"+ + # > > > > > > # > + + + + + + o + o o + + o # O O O + # + + O O # O + o # o O + O O X + + o + + # # # # # # > > # # # #   # ",
"+ + + # # # # > > > > # + + + + # # # O + + o + + + # # O # + # # O X # O # X # + O O + + O # # + + # # # > # > # # # # # # #   ",
"+ + + + + + + + # > > # + + + O X o o O o + X + + + # X # O # O # # # o # O # o + # + + + ; X # + +   # # # > > # # # # #   # # ",
"+ + + O O O + + > > > > > + O + o O O O # X + + + + # # O ; + # o # o # O # o # + # O + + + + # + + # # # , > > # + o #   # #   ",
"+ + + + O O O + # + > + + + + + O O O X # X > > + + o o # # + + # # # # # # # # + + # + + ; > + # # # # # # # # # o # # # # # # ",
"+ + + O X O O + + + + + + + + O O O + + > > > > # + + + + + + + + + + # + # # # + + # O # # > # # + + # + + + + + + + + + + + > ",
"+ O + + + O O + O O O + + + + O O O + # > , , , > # + + + + + + + + + + # # + + + + O # > # > # # + #   + + + + + + + + + > > + ",
"O # O O + + + + O O O + O + + O O O O # > < < , # # + + + + + + # + + # # # # + + O # # # > > # # + # + + + + + + + + + + # + + ",
"O O O O o # X o + O O O O + O O O O O + > > > > # # + + + + + + + + + + # + # + + + O # # # > # # # # + + + o + X o + + + + + + ",
"O O O O O O o # O O O + O O O O O O O O # # # # # # + # + + + + + + + # + + + + + + + + + # # # # # + + + + + o + O o # o # o o ",
"O   o O O O # O + + + O + O O O O O O O O O # + # # # + + + + + + + # + + + + + + O + O O + + + + # # # + + + + O O X X X o > o ",
"    O O O O # O + + + O + O O O O $ O O O O O O + # # # # + + + # # O # + + + + + + O + + + + + + # # + + + + o O O o o o o o o ",
"  O   O $ # O # + + + + O O O O O O O O O O O O O + + # # # # # # O # O + + + O + + + O O O O + + + + # # + # + + O # o X o X o ",
"o o o O X + o # + O # O O O O O O O O O O O $ O O + O # # > > # + O # O # O # # + + O O O + O O O # X # # # # # + O O O X $ . $ ",
"o o O o O o # # + + O O # O + O O O O $ $ O X O O O O # # > > > # + O # O # # O + + # O O O O O X O O # # > # # + O O o   $ $   ",
"o o O O O # # o X O O O # O O O O O O O O O $ O X O X # # > > # # O O O + + O O # + + O O O O O O O O # # ; # # + O O O $ . $   ",
"o o o o o o O # O O O O o O O O O O $ $ O O O O O O o # # # > ; # O O O $ $ + $ O + O O O O O O O   X o # # ; % O O o o   $   $ ",
"o o o o $ $ $ $ $ o o o o O o O $ $ $ $ O $ $ X O O O O # # O $ $ $     $ $ $ $ O O O O O O O O X $ $ O O O O O $             $ ",
"      o o o $ $ o o o o o o o o $ $ $ $ $ O O O O X O O O O O O $       $ $ $ $ $ O O O O O $ O $ $ $ $ $ $ $ $                 ",
"        o o o o o o     o o o O . $ $ $ O O O O O O O O $ # $ $ $           $ $ $ O X O O O O $ $ $ $ $ $ $ $ $                 ",
"        o o o o     o o o o o o $ . $ $ $ O O O $ O O O $ $ $ $ $               $ $ $ O O O O $ $ $ $ $ $                       "
};
